<?xml version="1.0" standalone="no"?>
<!DOCTYPE svg PUBLIC "-//W3C//DTD SVG 20010904//EN"
 "http://www.w3.org/TR/2001/REC-SVG-20010904/DTD/svg10.dtd">
<svg version="1.0" xmlns="http://www.w3.org/2000/svg"
 width="100.000000pt" height="100.000000pt" viewBox="0 0 100.000000 100.000000"
 preserveAspectRatio="xMidYMid meet">
<metadata>
Created by potrace 1.11, written by Peter Selinger 2001-2013
</metadata>
<g transform="translate(0.000000,100.000000) scale(0.100000,-0.100000)"
fill="#000000" stroke="none">
<path d="M459 979 c-28 -28 -61 -109 -56 -137 2 -13 -2 -29 -9 -37 -8 -8 -14
-18 -13 -22 1 -4 -1 -16 -4 -25 -4 -10 -9 -24 -11 -32 -3 -8 -22 -22 -42 -32
-55 -26 -122 -99 -154 -166 -69 -144 -40 -309 73 -419 143 -140 365 -143 512
-8 39 36 92 117 101 154 10 43 19 104 18 122 -7 110 -40 182 -122 261 l-64 64
35 51 c35 52 54 99 51 127 -1 8 -2 21 -3 28 -1 11 -20 13 -81 11 l-81 -3 -21
34 c-11 19 -26 38 -32 42 -22 15 -76 8 -97 -13z m234 -118 c17 -6 16 -9 -7
-34 -14 -15 -31 -27 -39 -27 -22 0 -37 24 -30 48 6 23 38 29 76 13z m-109
-248 c6 3 19 -2 29 -11 15 -14 19 -13 37 3 11 10 20 24 20 32 0 18 17 16 24
-3 10 -26 7 -39 -14 -62 -17 -18 -24 -20 -45 -10 -14 6 -25 17 -25 24 0 7 -5
16 -11 19 -6 4 -9 0 -7 -11 2 -13 -7 -21 -36 -29 -62 -18 -86 -9 -86 30 0 19
8 47 17 63 l17 30 34 -39 c19 -22 39 -38 46 -36z m-227 -40 c-14 -45 -66 -135
-102 -175 -8 -10 -24 -18 -36 -18 -18 0 -20 4 -14 36 7 45 40 121 63 148 28
32 96 78 100 67 2 -5 -3 -31 -11 -58z m80 -12 c-2 -36 -20 -71 -37 -71 -4 0 1
25 13 55 11 30 21 55 23 55 2 0 3 -17 1 -39z m327 -43 c76 -130 40 -299 -82
-389 -24 -17 -44 -30 -46 -28 -1 2 -8 35 -15 72 -6 38 -18 88 -26 112 -17 48
-10 80 39 171 14 27 26 55 26 63 0 8 12 27 26 42 31 32 35 29 78 -43z m-371
-117 c56 -43 131 -80 160 -81 43 0 -8 -38 -74 -55 -23 -6 -27 -2 -38 34 -15
51 -81 124 -105 115 -16 -6 -22 6 -9 19 10 10 10 10 66 -32z m-101 -89 c-2
-32 3 -84 11 -115 8 -31 11 -57 7 -57 -14 0 -63 64 -83 109 l-20 45 44 38 c24
20 44 38 44 38 0 0 -1 -26 -3 -58z m158 -86 c0 -8 16 -45 35 -82 39 -74 36
-84 -23 -75 l-37 6 1 60 c1 33 3 70 5 83 4 24 19 31 19 8z"/>
</g>
</svg>
